<svg width="48" height="51" viewBox="0 0 48 51" fill="none" xmlns="http://www.w3.org/2000/svg">
<circle cx="24" cy="24" r="23.5" fill="white" stroke="#848B95"/>
<path d="M31.5586 24.3691C31.4414 24.2324 31.3145 24.0859 31.1777 23.9297C31.0605 23.7734 30.9336 23.627 30.7969 23.4902C30.6602 23.3535 30.5137 23.2168 30.3574 23.0801C30.2207 22.9434 30.084 22.8164 29.9473 22.6992C29.8105 22.582 29.6641 22.4648 29.5078 22.3477C29.3516 22.2305 29.2051 22.1133 29.0684 21.9961C28.8926 21.8789 28.7266 21.7715 28.5703 21.6738C28.4141 21.5762 28.248 21.4883 28.0723 21.4102C27.916 21.332 27.7402 21.2539 27.5449 21.1758C27.3691 21.0977 27.1836 21.0195 26.9883 20.9414C26.8125 20.8828 26.627 20.834 26.4316 20.7949C26.2559 20.7363 26.0703 20.6777 25.875 20.6191C25.6797 20.5801 25.4844 20.5508 25.2891 20.5312C25.1133 20.4922 24.918 20.4629 24.7031 20.4434C24.5078 20.4238 24.3125 20.4141 24.1172 20.4141C23.9219 20.3945 23.7266 20.3848 23.5312 20.3848C23.1992 20.3848 22.8574 20.4043 22.5059 20.4434C22.1738 20.4629 21.8418 20.5117 21.5098 20.5898C21.1777 20.6484 20.8555 20.7266 20.543 20.8242C20.25 20.9219 19.9473 21.0293 19.6348 21.1465C19.3418 21.2637 19.0488 21.4004 18.7559 21.5566C18.4629 21.7129 18.1797 21.8887 17.9062 22.084C17.6914 22.2207 17.4766 22.377 17.2617 22.5527C17.0664 22.709 16.8711 22.875 16.6758 23.0508V21C16.6758 20.9023 16.666 20.8242 16.6465 20.7656C16.627 20.6875 16.5781 20.6094 16.5 20.5312C16.4219 20.4531 16.3438 20.4043 16.2656 20.3848C16.207 20.3652 16.1289 20.3555 16.0312 20.3555C15.9336 20.3555 15.8457 20.3652 15.7676 20.3848C15.709 20.4043 15.6406 20.4531 15.5625 20.5312C15.4844 20.6094 15.4355 20.6875 15.416 20.7656C15.3965 20.8242 15.3867 20.9023 15.3867 21V24.75C15.3867 24.8477 15.3965 24.9355 15.416 25.0137C15.4355 25.0723 15.4844 25.1406 15.5625 25.2188C15.6406 25.2969 15.709 25.3457 15.7676 25.3652C15.8457 25.3848 15.9336 25.3945 16.0312 25.3945H19.7812C19.8789 25.3945 19.957 25.3848 20.0156 25.3652C20.0938 25.3457 20.1719 25.2969 20.25 25.2188C20.3281 25.1406 20.377 25.0723 20.3965 25.0137C20.416 24.9355 20.4258 24.8477 20.4258 24.75C20.4258 24.6523 20.416 24.5742 20.3965 24.5156C20.377 24.4375 20.3281 24.3594 20.25 24.2812C20.1719 24.2031 20.0938 24.1543 20.0156 24.1348C19.957 24.1152 19.8789 24.1055 19.7812 24.1055H17.4961C17.6523 23.9297 17.8086 23.7734 17.9648 23.6367C18.1406 23.5 18.3262 23.373 18.5215 23.2559C18.7559 23.0801 19 22.9141 19.2539 22.7578C19.5078 22.6016 19.7812 22.4648 20.0742 22.3477C20.3477 22.2305 20.6211 22.1328 20.8945 22.0547C21.1875 21.957 21.4707 21.8887 21.7441 21.8496C22.0371 21.7715 22.3301 21.7227 22.623 21.7031C22.916 21.6641 23.2188 21.6445 23.5312 21.6445C23.8828 21.6445 24.2246 21.6738 24.5566 21.7324C24.8887 21.7715 25.2207 21.8203 25.5527 21.8789C25.8848 21.957 26.1973 22.0547 26.4902 22.1719C26.8027 22.2891 27.1152 22.4258 27.4277 22.582C27.7207 22.7383 28.0039 22.9043 28.2773 23.0801C28.5703 23.2559 28.8438 23.4512 29.0977 23.666C29.3711 23.8809 29.625 24.1152 29.8594 24.3691C30.0938 24.623 30.3086 24.8867 30.5039 25.1602C30.543 25.2188 30.582 25.2676 30.6211 25.3066C30.6602 25.3262 30.6992 25.3457 30.7383 25.3652C30.7969 25.3848 30.8457 25.4043 30.8848 25.4238C30.9434 25.4434 31.0117 25.4531 31.0898 25.4531C31.1289 25.4531 31.1582 25.4531 31.1777 25.4531C31.2168 25.4531 31.2656 25.4336 31.3242 25.3945C31.3438 25.375 31.373 25.3652 31.4121 25.3652C31.4512 25.3457 31.4805 25.3262 31.5 25.3066C31.5781 25.2676 31.6367 25.2188 31.6758 25.1602C31.7148 25.082 31.7539 24.9941 31.793 24.8965C31.7344 24.7793 31.6953 24.6816 31.6758 24.6035C31.6562 24.5254 31.6172 24.4473 31.5586 24.3691Z" fill="#848B95"/>
</svg>
