<svg width="48" height="51" viewBox="0 0 48 51" fill="none" xmlns="http://www.w3.org/2000/svg">
<circle cx="24" cy="24" r="23.5" fill="white" stroke="#848B95"/>
<path d="M25.4062 21.1758C25.5039 21.1758 25.582 21.166 25.6406 21.1465C25.7188 21.127 25.7969 21.0781 25.875 21C25.9531 20.9219 26.002 20.8535 26.0215 20.7949C26.041 20.7168 26.0508 20.6289 26.0508 20.5312C26.0508 20.4336 26.041 20.3555 26.0215 20.2969C26.002 20.2188 25.9531 20.1406 25.875 20.0625C25.7969 19.9844 25.7188 19.9355 25.6406 19.916C25.582 19.8965 25.5039 19.8867 25.4062 19.8867H24.1758V19.5938C24.1758 19.4961 24.166 19.418 24.1465 19.3594C24.127 19.2812 24.0781 19.2031 24 19.125C23.9219 19.0469 23.8438 18.998 23.7656 18.9785C23.707 18.959 23.6289 18.9492 23.5312 18.9492C23.4336 18.9492 23.3457 18.959 23.2676 18.9785C23.209 18.998 23.1406 19.0469 23.0625 19.125C22.9844 19.2031 22.9355 19.2812 22.916 19.3594C22.8965 19.418 22.8867 19.4961 22.8867 19.5938V19.8867H21.6562C21.5586 19.8867 21.4707 19.8965 21.3926 19.916C21.334 19.9355 21.2656 19.9844 21.1875 20.0625C21.1094 20.1406 21.0605 20.2188 21.041 20.2969C21.0215 20.3555 21.0117 20.4336 21.0117 20.5312V22.4062C21.0117 22.5039 21.0215 22.5918 21.041 22.6699C21.0605 22.7285 21.1094 22.7969 21.1875 22.875C21.2656 22.9531 21.334 23.002 21.3926 23.0215C21.4707 23.041 21.5586 23.0508 21.6562 23.0508H24.7617V23.6367H21.6562C21.5586 23.6367 21.4707 23.6465 21.3926 23.666C21.334 23.6855 21.2656 23.7344 21.1875 23.8125C21.1094 23.8906 21.0605 23.9688 21.041 24.0469C21.0215 24.1055 21.0117 24.1836 21.0117 24.2812C21.0117 24.3789 21.0215 24.4668 21.041 24.5449C21.0605 24.6035 21.1094 24.6719 21.1875 24.75C21.2656 24.8281 21.334 24.877 21.3926 24.8965C21.4707 24.916 21.5586 24.9258 21.6562 24.9258H22.8867V25.2188C22.8867 25.3164 22.8965 25.4043 22.916 25.4824C22.9355 25.541 22.9844 25.6094 23.0625 25.6875C23.1406 25.7656 23.209 25.8145 23.2676 25.834C23.3457 25.8535 23.4336 25.8633 23.5312 25.8633C23.6289 25.8633 23.707 25.8535 23.7656 25.834C23.8438 25.8145 23.9219 25.7656 24 25.6875C24.0781 25.6094 24.127 25.541 24.1465 25.4824C24.166 25.4043 24.1758 25.3164 24.1758 25.2188V24.9258H25.4062C25.5039 24.9258 25.582 24.916 25.6406 24.8965C25.7188 24.877 25.7969 24.8281 25.875 24.75C25.9531 24.6719 26.002 24.6035 26.0215 24.5449C26.041 24.4668 26.0508 24.3789 26.0508 24.2812V22.4062C26.0508 22.3086 26.041 22.2305 26.0215 22.1719C26.002 22.0938 25.9531 22.0156 25.875 21.9375C25.7969 21.8594 25.7188 21.8105 25.6406 21.791C25.582 21.7715 25.5039 21.7617 25.4062 21.7617H22.3008V21.1758H25.4062ZM31.5879 14.1152C31.5684 14.0566 31.5391 14.0078 31.5 13.9688C31.4609 13.9297 31.4121 13.9004 31.3535 13.8809L29.4785 12.9434C29.4395 12.9238 29.3906 12.9043 29.332 12.8848C29.293 12.8652 29.2539 12.8555 29.2148 12.8555C29.1562 12.8555 29.0977 12.8652 29.0391 12.8848C29 12.9043 28.9609 12.9238 28.9219 12.9434L27.2812 13.6758L25.6992 12.8848C25.6406 12.8652 25.582 12.8457 25.5234 12.8262C25.4844 12.8066 25.4453 12.7969 25.4062 12.7969C25.3672 12.7969 25.3184 12.8066 25.2598 12.8262C25.2207 12.8457 25.1719 12.8652 25.1133 12.8848L23.5312 13.6758L21.9492 12.8848C21.8906 12.8652 21.832 12.8457 21.7734 12.8262C21.7344 12.8066 21.6953 12.7969 21.6562 12.7969C21.6172 12.7969 21.5684 12.8066 21.5098 12.8262C21.4707 12.8457 21.4219 12.8652 21.3633 12.8848L19.7812 13.6758L18.1992 12.8848C18.1406 12.8652 18.082 12.8457 18.0234 12.8262C17.9844 12.8066 17.9453 12.7969 17.9062 12.7969C17.8672 12.7969 17.8184 12.8066 17.7598 12.8262C17.7207 12.8457 17.6719 12.8652 17.6133 12.8848L15.7383 13.8223C15.6992 13.8418 15.6504 13.8809 15.5918 13.9395C15.5527 13.9785 15.5137 14.0176 15.4746 14.0566C15.4551 14.1152 15.4355 14.1738 15.416 14.2324C15.3965 14.291 15.3867 14.3398 15.3867 14.3789V31.2539C15.3867 31.3125 15.3965 31.3711 15.416 31.4297C15.4355 31.4883 15.4551 31.5469 15.4746 31.6055C15.4941 31.6445 15.5234 31.6836 15.5625 31.7227C15.6016 31.7617 15.6504 31.8008 15.709 31.8398C15.748 31.8594 15.7871 31.8789 15.8262 31.8984C15.8848 31.918 15.9531 31.9277 16.0312 31.9277C16.0312 31.9277 16.0508 31.9277 16.0898 31.9277C16.1289 31.9277 16.168 31.918 16.207 31.8984C16.2656 31.8789 16.3145 31.8691 16.3535 31.8691L17.9648 31.0781L19.5469 31.8691C19.5859 31.8887 19.625 31.9082 19.6641 31.9277C19.7227 31.9277 19.7812 31.9277 19.8398 31.9277C19.8789 31.9277 19.918 31.9277 19.957 31.9277C20.0156 31.9082 20.0645 31.8887 20.1035 31.8691L21.7148 31.0781L23.2969 31.8691C23.3359 31.8887 23.375 31.9082 23.4141 31.9277C23.4727 31.9277 23.5312 31.9277 23.5898 31.9277C23.6289 31.9277 23.668 31.9277 23.707 31.9277C23.7656 31.9082 23.8145 31.8887 23.8535 31.8691L25.4648 31.0781L27.0469 31.8691C27.0859 31.8887 27.125 31.9082 27.1641 31.9277C27.2227 31.9277 27.2812 31.9277 27.3398 31.9277C27.3789 31.9277 27.418 31.9277 27.457 31.9277C27.5156 31.9082 27.5645 31.8887 27.6035 31.8691L29.2148 31.0781L30.7969 31.8691C30.8164 31.8887 30.8359 31.9082 30.8555 31.9277C30.8945 31.9277 30.9238 31.9277 30.9434 31.9277C30.9629 31.9277 30.9824 31.9277 31.002 31.9277C31.0215 31.9277 31.0508 31.9277 31.0898 31.9277C31.1094 31.9277 31.1289 31.9277 31.1484 31.9277C31.1875 31.9277 31.2266 31.9277 31.2656 31.9277C31.2852 31.9277 31.3145 31.918 31.3535 31.8984C31.3926 31.8789 31.4219 31.8594 31.4414 31.8398C31.5 31.8008 31.5488 31.7617 31.5879 31.7227C31.627 31.6836 31.6562 31.6445 31.6758 31.6055C31.7148 31.5469 31.7441 31.498 31.7637 31.459C31.7832 31.4004 31.793 31.332 31.793 31.2539V14.4375C31.7344 14.3594 31.6855 14.3008 31.6465 14.2617C31.627 14.2031 31.6074 14.1543 31.5879 14.1152ZM30.3867 14.8477V30.2871L29.4492 29.8184C29.3906 29.7988 29.332 29.7891 29.2734 29.7891C29.2344 29.7695 29.1953 29.7598 29.1562 29.7598C29.1172 29.7598 29.0684 29.7695 29.0098 29.7891C28.9707 29.7891 28.9219 29.7988 28.8633 29.8184L27.2812 30.5508L25.6992 29.7598C25.6602 29.7598 25.6309 29.7598 25.6113 29.7598C25.5918 29.7402 25.5723 29.7305 25.5527 29.7305C25.5332 29.7305 25.5039 29.7305 25.4648 29.7305C25.4453 29.7305 25.4258 29.7305 25.4062 29.7305C25.3867 29.7305 25.3574 29.7305 25.3184 29.7305C25.2988 29.7305 25.2793 29.7305 25.2598 29.7305C25.2402 29.7305 25.2109 29.7402 25.1719 29.7598C25.1523 29.7598 25.123 29.7598 25.084 29.7598L23.5312 30.5508L21.9492 29.7598C21.8906 29.7402 21.832 29.7305 21.7734 29.7305C21.7344 29.7305 21.6953 29.7305 21.6562 29.7305C21.6172 29.7305 21.5684 29.7305 21.5098 29.7305C21.4707 29.7305 21.4219 29.7402 21.3633 29.7598L19.7812 30.5508L18.1992 29.7598C18.1406 29.7402 18.082 29.7305 18.0234 29.7305C17.9844 29.7305 17.9453 29.7305 17.9062 29.7305C17.8672 29.7305 17.8184 29.7305 17.7598 29.7305C17.7207 29.7305 17.6719 29.7402 17.6133 29.7598L16.6758 30.2285V14.8477L17.9062 14.2617L19.4883 15.0527C19.5469 15.0723 19.5957 15.082 19.6348 15.082C19.6934 15.082 19.7422 15.082 19.7812 15.082C19.8203 15.082 19.8594 15.082 19.8984 15.082C19.957 15.082 20.0156 15.0723 20.0742 15.0527L21.6562 14.2617L23.2383 15.0527C23.2969 15.0723 23.3457 15.082 23.3848 15.082C23.4434 15.082 23.4922 15.082 23.5312 15.082C23.5703 15.082 23.6094 15.082 23.6484 15.082C23.707 15.082 23.7656 15.0723 23.8242 15.0527L25.4062 14.2617L26.9883 15.0527C27.0469 15.0723 27.0957 15.082 27.1348 15.082C27.1934 15.082 27.2422 15.082 27.2812 15.082C27.3203 15.082 27.3594 15.082 27.3984 15.082C27.457 15.082 27.5156 15.0723 27.5742 15.0527L29.1562 14.2617L30.3867 14.8477Z" fill="#848B95"/>
</svg>
