<svg width="48" height="51" viewBox="0 0 48 51" fill="none" xmlns="http://www.w3.org/2000/svg">
<circle cx="24" cy="24" r="23.5" fill="white" stroke="#848B95"/>
<path d="M33.1992 21.5273C33.1992 21.3711 33.1895 21.2344 33.1699 21.1172C33.1504 21 33.1211 20.8828 33.082 20.7656C33.0625 20.6484 33.0332 20.541 32.9941 20.4434C32.9551 20.3457 32.9062 20.248 32.8477 20.1504C32.7891 20.0332 32.7109 19.9355 32.6133 19.8574C32.5156 19.7598 32.4082 19.6719 32.291 19.5938C32.1738 19.5156 32.0469 19.4668 31.9102 19.4473C31.793 19.4277 31.6562 19.418 31.5 19.418H29.332C29.4883 19.1445 29.6152 18.8906 29.7129 18.6562C29.8301 18.4219 29.9277 18.1875 30.0059 17.9531C30.1035 17.6797 30.1914 17.416 30.2695 17.1621C30.3477 16.9082 30.416 16.6738 30.4746 16.459C30.5137 16.2246 30.5332 16 30.5332 15.7852C30.5527 15.5703 30.543 15.3555 30.5039 15.1406C30.4844 14.9258 30.4453 14.7402 30.3867 14.584C30.3477 14.4082 30.2793 14.2324 30.1816 14.0566C30.0449 13.8223 29.8887 13.6367 29.7129 13.5C29.5566 13.3438 29.3906 13.2168 29.2148 13.1191C29.0195 13.0215 28.8242 12.9531 28.6289 12.9141C28.4531 12.875 28.2871 12.8555 28.1309 12.8555C28.0527 12.8555 27.9746 12.8652 27.8965 12.8848C27.8184 12.9043 27.75 12.9531 27.6914 13.0312C27.6328 13.0703 27.584 13.1289 27.5449 13.207C27.5254 13.2852 27.4961 13.3633 27.457 13.4414C27.4375 13.5977 27.4082 13.7539 27.3691 13.9102C27.3301 14.0664 27.2812 14.2227 27.2227 14.3789C27.1641 14.5547 27.0859 14.7305 26.9883 14.9062C26.9102 15.0625 26.8223 15.2188 26.7246 15.375C26.6074 15.5312 26.4805 15.6973 26.3438 15.873C26.2266 16.0488 26.0996 16.2246 25.9629 16.4004C25.8262 16.5762 25.6699 16.752 25.4941 16.9277C25.3379 17.084 25.1719 17.25 24.9961 17.4258C24.8203 17.6016 24.6348 17.7676 24.4395 17.9238C24.2637 18.0605 24.0684 18.1973 23.8535 18.334C23.6777 18.4707 23.4824 18.6074 23.2676 18.7441C23.0527 18.8809 22.8477 19.0078 22.6523 19.125C22.4375 19.2422 22.2227 19.3594 22.0078 19.4766C21.793 19.5938 21.5781 19.6914 21.3633 19.7695C21.1875 19.8672 21.002 19.9551 20.8066 20.0332C20.6113 20.1113 20.4062 20.1797 20.1914 20.2383C20.1328 20.1602 20.0645 20.0723 19.9863 19.9746C19.9082 19.877 19.8105 19.7988 19.6934 19.7402C19.5762 19.6426 19.4395 19.5742 19.2832 19.5352C19.127 19.4766 18.9805 19.4473 18.8438 19.4473H16.0312C15.8164 19.4473 15.6113 19.4863 15.416 19.5645C15.2207 19.6426 15.0547 19.7598 14.918 19.916C14.7617 20.0918 14.6445 20.2773 14.5664 20.4727C14.4883 20.6484 14.4492 20.8438 14.4492 21.0586V29.4961C14.4492 29.6914 14.4785 29.8965 14.5371 30.1113C14.6152 30.3066 14.7422 30.4727 14.918 30.6094C15.0742 30.7461 15.2402 30.8633 15.416 30.9609C15.6113 31.0391 15.8164 31.0781 16.0312 31.0781H18.8438C19 31.0781 19.1562 31.0586 19.3125 31.0195C19.4688 30.9609 19.6055 30.8828 19.7227 30.7852C19.8398 30.7266 19.9473 30.6484 20.0449 30.5508C20.1426 30.4336 20.2109 30.3164 20.25 30.1992C20.6797 30.2383 21.041 30.2969 21.334 30.375C21.6465 30.4336 21.8906 30.5117 22.0664 30.6094C22.2812 30.707 22.4766 30.7949 22.6523 30.873C22.8477 30.9512 23.0332 31.0391 23.209 31.1367C23.3262 31.1758 23.4336 31.2246 23.5312 31.2832C23.6289 31.3418 23.7363 31.4004 23.8535 31.459C23.9707 31.498 24.0977 31.5469 24.2344 31.6055C24.3906 31.6445 24.5469 31.6836 24.7031 31.7227C24.8594 31.7812 25.0352 31.8301 25.2305 31.8691C25.4258 31.8887 25.6406 31.9082 25.875 31.9277C26.1094 31.9473 26.3633 31.9668 26.6367 31.9863C26.9102 32.0059 27.2031 32.0156 27.5156 32.0156C27.7109 32.0156 27.8867 32.0059 28.043 31.9863C28.2188 31.9668 28.3848 31.9277 28.541 31.8691C28.7168 31.8301 28.873 31.7812 29.0098 31.7227C29.1465 31.6445 29.293 31.5664 29.4492 31.4883C29.5664 31.4102 29.6738 31.3223 29.7715 31.2246C29.8887 31.127 29.9766 31.0195 30.0352 30.9023C30.1133 30.7852 30.1719 30.6777 30.2109 30.5801C30.2695 30.4629 30.3281 30.3359 30.3867 30.1992C30.4648 30.1406 30.543 30.082 30.6211 30.0234C30.6992 29.9453 30.7871 29.877 30.8848 29.8184C30.9824 29.7207 31.0703 29.6133 31.1484 29.4961C31.2266 29.3789 31.2949 29.252 31.3535 29.1152C31.4316 28.9785 31.4902 28.8418 31.5293 28.7051C31.5879 28.5488 31.6367 28.3828 31.6758 28.207C31.7344 28.0508 31.7637 27.9043 31.7637 27.7676C31.7832 27.6309 31.793 27.5039 31.793 27.3867C31.793 27.3477 31.793 27.3184 31.793 27.2988C31.793 27.2793 31.793 27.2598 31.793 27.2402C31.832 27.1816 31.8711 27.1328 31.9102 27.0938C31.9688 27.0352 32.0176 26.9766 32.0566 26.918C32.1152 26.8398 32.1738 26.7617 32.2324 26.6836C32.291 26.5859 32.3398 26.4883 32.3789 26.3906C32.457 26.2539 32.5156 26.1172 32.5547 25.9805C32.6133 25.8242 32.6719 25.668 32.7305 25.5117C32.7695 25.3359 32.7891 25.1797 32.7891 25.043C32.8086 24.8867 32.8184 24.7305 32.8184 24.5742C32.8184 24.4766 32.8086 24.3789 32.7891 24.2812C32.7891 24.1641 32.7793 24.0664 32.7598 23.9883C32.7402 23.9297 32.7207 23.8613 32.7012 23.7832C32.6816 23.6855 32.6523 23.6172 32.6133 23.5781C32.7109 23.4609 32.7891 23.334 32.8477 23.1973C32.9258 23.041 32.9941 22.875 33.0527 22.6992C33.0918 22.5039 33.1211 22.3086 33.1406 22.1133C33.1797 21.8984 33.1992 21.7031 33.1992 21.5273ZM31.4414 22.875C31.3633 22.875 31.2852 22.8945 31.207 22.9336C31.1289 22.9727 31.0703 23.0117 31.0312 23.0508C30.9531 23.1289 30.9043 23.207 30.8848 23.2852C30.8652 23.3633 30.8555 23.4414 30.8555 23.5195C30.8555 23.6172 30.8652 23.7051 30.8848 23.7832C30.9043 23.8613 30.9531 23.9297 31.0312 23.9883C31.0703 24.0469 31.1289 24.0957 31.207 24.1348C31.2852 24.1738 31.3633 24.1934 31.4414 24.1934C31.4414 24.2129 31.4512 24.2324 31.4707 24.252C31.4902 24.2715 31.5 24.3008 31.5 24.3398C31.5 24.3789 31.5098 24.4277 31.5293 24.4863C31.5488 24.5254 31.5586 24.5645 31.5586 24.6035C31.5586 24.7012 31.5488 24.8086 31.5293 24.9258C31.5098 25.0234 31.4805 25.1211 31.4414 25.2188C31.4219 25.3359 31.3926 25.4434 31.3535 25.541C31.3145 25.6387 31.2656 25.7363 31.207 25.834C31.168 25.9512 31.1289 26.0391 31.0898 26.0977C31.0508 26.1367 31.0117 26.1562 30.9727 26.1562C30.9531 26.1758 30.9336 26.1953 30.9141 26.2148C30.8945 26.2148 30.8848 26.2148 30.8848 26.2148C30.7871 26.2148 30.6992 26.2246 30.6211 26.2441C30.5625 26.2637 30.5137 26.3125 30.4746 26.3906C30.3965 26.4688 30.3379 26.5469 30.2988 26.625C30.2793 26.6836 30.2695 26.7617 30.2695 26.8594C30.2695 26.8984 30.2793 26.957 30.2988 27.0352C30.3184 27.0938 30.3477 27.1426 30.3867 27.1816C30.4062 27.2402 30.4258 27.2793 30.4453 27.2988C30.4648 27.3184 30.4844 27.3477 30.5039 27.3867C30.5039 27.4258 30.4941 27.4941 30.4746 27.5918C30.4551 27.6895 30.4355 27.8164 30.416 27.9727C30.3965 28.1289 30.3477 28.2754 30.2695 28.4121C30.2109 28.5488 30.1328 28.6855 30.0352 28.8223C30.0156 28.8809 29.9863 28.9199 29.9473 28.9395C29.9277 28.959 29.8984 28.9883 29.8594 29.0273C29.8398 28.9883 29.8203 28.9688 29.8008 28.9688C29.7227 28.9688 29.6445 28.9883 29.5664 29.0273C29.4883 29.0469 29.4102 29.0859 29.332 29.1445C29.2734 29.2227 29.2246 29.3008 29.1855 29.3789C29.166 29.457 29.1562 29.5352 29.1562 29.6133C29.1562 29.7891 29.1172 29.9355 29.0391 30.0527C28.9609 30.1699 28.8438 30.2773 28.6875 30.375C28.5312 30.4727 28.3555 30.5508 28.1602 30.6094C27.9648 30.6484 27.7695 30.668 27.5742 30.668C27.2812 30.668 27.0078 30.668 26.7539 30.668C26.5195 30.6484 26.3047 30.6289 26.1094 30.6094C25.9141 30.5898 25.7383 30.5703 25.582 30.5508C25.4258 30.5117 25.2695 30.4824 25.1133 30.4629C24.9766 30.4434 24.8594 30.4141 24.7617 30.375C24.6641 30.3359 24.5664 30.2871 24.4688 30.2285C24.3711 30.1895 24.2734 30.1504 24.1758 30.1113C24.0977 30.0527 24.0098 30.0039 23.9121 29.9648C23.8145 29.9062 23.7168 29.8574 23.6191 29.8184C23.5215 29.7598 23.4336 29.7109 23.3555 29.6719C23.2578 29.6328 23.1406 29.5938 23.0039 29.5547C22.8672 29.4961 22.7305 29.4375 22.5938 29.3789C22.457 29.3398 22.3008 29.3008 22.125 29.2617C21.9688 29.2031 21.793 29.1543 21.5977 29.1152C21.4414 29.0566 21.2656 29.0176 21.0703 28.998C20.875 28.9785 20.6602 28.9492 20.4258 28.9102V21.4688C20.6602 21.3906 20.8848 21.3125 21.0996 21.2344C21.334 21.1367 21.5684 21.0391 21.8027 20.9414C22.0371 20.8242 22.2715 20.707 22.5059 20.5898C22.7598 20.4727 22.9941 20.3457 23.209 20.209C23.4434 20.0723 23.668 19.9355 23.8828 19.7988C24.1172 19.6426 24.3418 19.4766 24.5566 19.3008C24.7715 19.1445 24.9863 18.9883 25.2012 18.832C25.416 18.6562 25.6211 18.4707 25.8164 18.2754C26.0117 18.1191 26.1875 17.9531 26.3438 17.7773C26.5195 17.582 26.6953 17.4062 26.8711 17.25C27.0273 17.0547 27.1738 16.8789 27.3105 16.7227C27.4473 16.5469 27.5742 16.3613 27.6914 16.166C27.8086 15.9902 27.9258 15.8145 28.043 15.6387C28.1602 15.4629 28.248 15.2773 28.3066 15.082C28.3848 14.9453 28.4434 14.8086 28.4824 14.6719C28.541 14.5352 28.5898 14.3984 28.6289 14.2617C28.668 14.2812 28.6973 14.3008 28.7168 14.3203C28.7363 14.3203 28.7559 14.3301 28.7754 14.3496C28.834 14.3887 28.8926 14.4375 28.9512 14.4961C29.0098 14.5352 29.0488 14.5938 29.0684 14.6719C29.0879 14.7109 29.1074 14.7793 29.127 14.877C29.1465 14.9746 29.1758 15.082 29.2148 15.1992C29.2344 15.3164 29.2344 15.4531 29.2148 15.6094C29.2148 15.7656 29.1953 15.9414 29.1562 16.1367C29.1172 16.332 29.0586 16.5566 28.9805 16.8105C28.9023 17.0449 28.8047 17.2988 28.6875 17.5723C28.5703 17.8652 28.4141 18.1875 28.2188 18.5391C28.043 18.8711 27.8379 19.2422 27.6035 19.6523C27.584 19.6914 27.5645 19.7402 27.5449 19.7988C27.5254 19.8379 27.5156 19.8965 27.5156 19.9746C27.5156 20.0332 27.5254 20.0918 27.5449 20.1504C27.5645 20.209 27.584 20.2578 27.6035 20.2969C27.623 20.3359 27.6523 20.3848 27.6914 20.4434C27.75 20.4824 27.7988 20.5117 27.8379 20.5312C27.8965 20.5508 27.9551 20.5703 28.0137 20.5898C28.0723 20.6094 28.1211 20.6191 28.1602 20.6191H31.4414C31.4805 20.6191 31.5098 20.6289 31.5293 20.6484C31.5488 20.6484 31.5684 20.6582 31.5879 20.6777C31.6074 20.6973 31.627 20.7168 31.6465 20.7363C31.666 20.7363 31.6758 20.7461 31.6758 20.7656C31.6758 20.7852 31.6953 20.8242 31.7344 20.8828C31.7734 20.9219 31.793 20.9805 31.793 21.0586C31.8125 21.0977 31.8223 21.1562 31.8223 21.2344C31.8223 21.293 31.8223 21.3516 31.8223 21.4102C31.8223 21.5078 31.8223 21.6055 31.8223 21.7031C31.8223 21.8008 31.8125 21.8984 31.793 21.9961C31.7539 22.0742 31.7246 22.1621 31.7051 22.2598C31.6855 22.3574 31.6465 22.4355 31.5879 22.4941C31.5879 22.6113 31.5684 22.6992 31.5293 22.7578C31.5098 22.7969 31.4805 22.8359 31.4414 22.875C31.4414 22.8555 31.4414 22.8555 31.4414 22.875ZM15.7383 21C15.7383 20.9609 15.748 20.9316 15.7676 20.9121C15.7871 20.873 15.8164 20.8438 15.8555 20.8242C15.875 20.7852 15.9043 20.7559 15.9434 20.7363C15.9824 20.7168 16.0117 20.707 16.0312 20.707H18.8438C18.8828 20.707 18.9121 20.7168 18.9316 20.7363C18.9707 20.7559 19 20.7852 19.0195 20.8242C19.0586 20.8438 19.0879 20.873 19.1074 20.9121C19.127 20.9512 19.1367 20.9805 19.1367 21V29.4375C19.1367 29.4766 19.127 29.5156 19.1074 29.5547C19.0879 29.5742 19.0586 29.5938 19.0195 29.6133C19 29.6523 18.9707 29.6816 18.9316 29.7012C18.8926 29.7207 18.8633 29.7305 18.8438 29.7305H16.0312C15.9922 29.7305 15.9531 29.7207 15.9141 29.7012C15.8945 29.6816 15.875 29.6523 15.8555 29.6133C15.8164 29.5938 15.7871 29.5645 15.7676 29.5254C15.748 29.4863 15.7383 29.457 15.7383 29.4375V21Z" fill="#848B95"/>
</svg>
