<svg width="48" height="51" viewBox="0 0 48 51" fill="none" xmlns="http://www.w3.org/2000/svg">
<circle cx="24" cy="24" r="23.5" fill="white" stroke="#848B95"/>
<path d="M23.5312 29.7305C23.4336 29.7305 23.3457 29.7402 23.2676 29.7598C23.209 29.7793 23.1406 29.8281 23.0625 29.9062C22.9844 29.9844 22.9355 30.0625 22.916 30.1406C22.8965 30.1992 22.8867 30.2773 22.8867 30.375V31.3125C22.8867 31.4102 22.8965 31.498 22.916 31.5762C22.9355 31.6348 22.9844 31.7031 23.0625 31.7812C23.1406 31.8594 23.209 31.9082 23.2676 31.9277C23.3457 31.9473 23.4336 31.957 23.5312 31.957C23.6289 31.957 23.707 31.9473 23.7656 31.9277C23.8438 31.9082 23.9219 31.8594 24 31.7812C24.0781 31.7031 24.127 31.6348 24.1465 31.5762C24.166 31.498 24.1758 31.4102 24.1758 31.3125V30.375C24.1758 30.2773 24.166 30.1992 24.1465 30.1406C24.127 30.0625 24.0781 29.9844 24 29.9062C23.9219 29.8281 23.8438 29.7793 23.7656 29.7598C23.707 29.7402 23.6289 29.7305 23.5312 29.7305ZM29.3027 17.6309C29.127 17.2598 28.9219 16.8984 28.6875 16.5469C28.4727 16.1953 28.2188 15.8828 27.9258 15.6094C27.6523 15.3359 27.3496 15.082 27.0176 14.8477C26.6855 14.6133 26.3242 14.418 25.9336 14.2617C25.543 14.0859 25.1426 13.959 24.7324 13.8809C24.3223 13.7832 23.9023 13.7344 23.4727 13.7344C23.0625 13.7344 22.6426 13.7832 22.2129 13.8809C21.8027 13.959 21.4121 14.0859 21.041 14.2617C20.6699 14.418 20.3184 14.6133 19.9863 14.8477C19.6543 15.082 19.332 15.3359 19.0195 15.6094C18.7461 15.8828 18.4922 16.1855 18.2578 16.5176C18.0234 16.8496 17.8281 17.2207 17.6719 17.6309C17.5156 18.002 17.3984 18.3926 17.3203 18.8027C17.2422 19.2129 17.2031 19.6328 17.2031 20.0625C17.2031 20.1602 17.2129 20.248 17.2324 20.3262C17.2715 20.3848 17.3203 20.4531 17.3789 20.5312C17.457 20.6094 17.5352 20.6582 17.6133 20.6777C17.6914 20.6973 17.7695 20.707 17.8477 20.707C17.9453 20.707 18.0332 20.6973 18.1113 20.6777C18.1895 20.6582 18.2578 20.6094 18.3164 20.5312C18.3945 20.4531 18.4434 20.3848 18.4629 20.3262C18.502 20.248 18.5215 20.1602 18.5215 20.0625C18.5215 19.7305 18.5508 19.4082 18.6094 19.0957C18.6875 18.7637 18.7852 18.4414 18.9023 18.1289C19.0391 17.8359 19.1855 17.5625 19.3418 17.3086C19.5176 17.0352 19.7227 16.7812 19.957 16.5469C20.1914 16.3125 20.4355 16.1074 20.6895 15.9316C20.9629 15.7559 21.2559 15.5996 21.5684 15.4629C21.8613 15.3262 22.1738 15.2285 22.5059 15.1699C22.8379 15.1113 23.1602 15.082 23.4727 15.082C23.8047 15.082 24.127 15.1211 24.4395 15.1992C24.7715 15.2578 25.0938 15.3457 25.4062 15.4629C25.7188 15.5996 26.002 15.7559 26.2559 15.9316C26.5098 16.1074 26.7539 16.3125 26.9883 16.5469C27.2227 16.7812 27.4277 17.0352 27.6035 17.3086C27.7793 17.5625 27.9355 17.8359 28.0723 18.1289C28.209 18.4414 28.3066 18.7637 28.3652 19.0957C28.4238 19.4082 28.4531 19.7305 28.4531 20.0625C28.4531 20.4141 28.4141 20.7559 28.3359 21.0879C28.2773 21.4004 28.1895 21.7031 28.0723 21.9961C27.9355 22.2891 27.7793 22.5723 27.6035 22.8457C27.4277 23.0996 27.2227 23.3438 26.9883 23.5781C26.793 23.793 26.5586 23.998 26.2852 24.1934C26.0117 24.3691 25.7188 24.5254 25.4062 24.6621C25.0938 24.7793 24.7812 24.877 24.4688 24.9551C24.1562 25.0137 23.8242 25.043 23.4727 25.043C23.3945 25.043 23.3164 25.0527 23.2383 25.0723C23.1602 25.0918 23.082 25.1406 23.0039 25.2188C22.9453 25.2969 22.8965 25.375 22.8574 25.4531C22.8379 25.5117 22.8281 25.5898 22.8281 25.6875V28.5C22.8281 28.5977 22.8379 28.6855 22.8574 28.7637C22.8965 28.8223 22.9453 28.8906 23.0039 28.9688C23.082 29.0469 23.1602 29.0957 23.2383 29.1152C23.3164 29.1348 23.3945 29.1445 23.4727 29.1445C23.5703 29.1445 23.6582 29.1348 23.7363 29.1152C23.8145 29.0957 23.8828 29.0469 23.9414 28.9688C24.0195 28.8906 24.0684 28.8223 24.0879 28.7637C24.127 28.6855 24.1465 28.5977 24.1465 28.5V26.3027C24.5176 26.2441 24.8789 26.166 25.2305 26.0684C25.582 25.9707 25.9238 25.8438 26.2559 25.6875C26.6074 25.5312 26.9297 25.3359 27.2227 25.1016C27.5352 24.8672 27.8184 24.6133 28.0723 24.3398C28.3262 24.0469 28.5605 23.7441 28.7754 23.4316C28.9902 23.0996 29.166 22.7578 29.3027 22.4062C29.4395 22.0547 29.5469 21.6836 29.625 21.293C29.7227 20.9023 29.7715 20.4922 29.7715 20.0625C29.791 19.6328 29.752 19.2129 29.6543 18.8027C29.5762 18.3926 29.459 18.002 29.3027 17.6309Z" fill="#848B95"/>
</svg>
